<?xml version="1.0" encoding="utf-8"?>
<!-- Generator: Adobe Illustrator 26.3.1, SVG Export Plug-In . SVG Version: 6.00 Build 0)  -->
<svg version="1.1" id="Layer_1" xmlns="http://www.w3.org/2000/svg" xmlns:xlink="http://www.w3.org/1999/xlink" x="0px" y="0px"
	 viewBox="0 0 50 50" style="enable-background:new 0 0 50 50;" xml:space="preserve">
<style type="text/css">
	.st0{fill:#FDFEFE;}
	.st1{fill:#0B90F8;}
	.st2{fill:#0D82F7;}
	.st3{fill:#0A93F8;}
	.st4{fill:#06A7FA;}
	.st5{fill:#07A4FA;}
</style>
<path class="st0" d="M38.34,40.33c0.26,0.75,0.51,1.5,0.79,2.24c0.12,0.31,0.09,0.55-0.07,0.83c-0.69,1.15-1.36,2.31-2.03,3.47
	c-0.18,0.3-0.35,0.6-0.54,0.89c-0.23,0.34-0.41,0.36-0.7,0.11c-0.02-0.03-0.06-0.06-0.07-0.1c-1.1-3.11-2.2-6.22-3.29-9.33
	c-0.1-0.29-0.2-0.35-0.5-0.26c-4.66,1.42-9.33,1.41-13.99-0.03c-0.29-0.09-0.38-0.03-0.47,0.24c-1.01,2.94-2.03,5.88-3.05,8.82
	c-0.11,0.32-0.22,0.62-0.49,0.84c-0.27,0.01-0.38-0.2-0.5-0.39c-0.29-0.46-0.57-0.93-0.85-1.4c-0.39-0.67-0.71-1.39-1.17-2.01
	c-0.65-0.86-0.67-1.66-0.26-2.66c0.7-1.72,1.24-3.51,1.86-5.27c0.09-0.25,0.06-0.38-0.18-0.51c-0.36-0.2-0.71-0.43-1.06-0.65
	c-0.05-0.03-0.09-0.07-0.14-0.1c-0.08-0.06-0.17-0.12-0.25-0.18c-0.89-0.69-1.77-1.39-2.58-2.17c-0.53-0.52-0.54-0.93-0.03-1.44
	c0.61-0.6,1.22-1.21,1.84-1.81c0.5-0.49,0.93-0.5,1.43,0c0.71,0.7,1.48,1.32,2.28,1.91c0.29,0.22,0.36,0.14,0.47-0.16
	c0.65-1.92,1.31-3.83,1.99-5.73c0.12-0.33,0.07-0.53-0.22-0.69c-0.07-0.07-0.14-0.14-0.21-0.21c-0.06-0.06-0.11-0.13-0.17-0.19
	l-0.01,0.02l0.01-0.02c-0.07-0.07-0.13-0.14-0.2-0.2c-0.26-0.32-0.52-0.65-0.78-0.97c-0.06-0.08-0.12-0.17-0.18-0.25
	c-0.48-0.76-0.9-1.54-1.22-2.38c-0.67-1.72-0.85-3.51-0.73-5.34c0.3-2.57,1.3-4.83,3-6.77c0.09,0,0.14-0.06,0.2-0.12
	c1.57-1.62,3.43-2.74,5.61-3.31c0.2-0.05,0.25-0.15,0.25-0.33c-0.01-0.6-0.01-1.21,0-1.81c0-0.66,0.31-0.97,0.96-0.97
	c1.34,0,2.68,0,4.03,0c0.63,0,0.93,0.31,0.94,0.94c0.01,0.59,0.01,1.18-0.01,1.77c-0.01,0.27,0.06,0.4,0.34,0.47
	c0.98,0.26,1.89,0.67,2.77,1.18c1.34,0.78,2.45,1.82,3.43,3c0,0.03,0.01,0.05,0.04,0.06c0.07,0.09,0.14,0.18,0.21,0.27
	c0.04,0.07,0.07,0.14,0.12,0.21c1.06,1.54,1.71,3.24,1.94,5.1c0.25,2-0.01,3.93-0.72,5.81c-0.68,1.58-1.61,3-2.88,4.17
	c-0.1,0.09-0.13,0.18-0.08,0.31c0.36,0.97,0.72,1.94,1.07,2.91c0.02,0.05,0.04,0.11,0.06,0.16c0.02,0.17,0.09,0.33,0.17,0.48
	c0.05,0.37-0.24,0.5-0.48,0.67c-1.04,0.69-2.15,1.25-3.32,1.7c-0.43,0.16-0.54,0.1-0.72-0.31c-0.16-0.36-0.22-0.77-0.46-1.09
	c-0.1-0.71-0.46-1.34-0.67-2.01c-0.07-0.2-0.22-0.09-0.34-0.05c-2.33,0.68-4.66,0.69-6.98,0.01c-0.26-0.08-0.35-0.01-0.42,0.23
	c-0.18,0.56-0.38,1.12-0.58,1.67c-0.43,1.25-0.84,2.5-1.3,3.73c-0.16,0.41-0.04,0.52,0.33,0.62c6.95,1.9,13.07,0.4,18.38-4.46
	c0.19-0.17,0.37-0.34,0.61-0.44c0.13,0,0.26,0,0.39,0c0.16,0.1,0.33,0.17,0.46,0.31c0.67,0.68,1.35,1.35,2.01,2.02
	c0.32,0.33,0.33,0.73,0.03,1.08c-0.13,0.15-0.27,0.29-0.41,0.44c-0.66,0.55-1.3,1.1-1.97,1.63c-0.68,0.53-1.4,1.01-2.14,1.46
	c-0.14,0.07-0.1,0.16-0.03,0.25l0,0c-0.01,0.03,0,0.04,0.03,0.06c0.05,0.28,0.17,0.54,0.28,0.8c0.04,0.11,0.08,0.22,0.12,0.33
	C37.61,38.41,37.95,39.38,38.34,40.33z M31.4,13.72c-0.02-0.03-0.04-0.07-0.06-0.1c-1.05-2.26-2.84-3.58-5.27-3.99
	c-2.11-0.35-4.01,0.2-5.66,1.57c-0.97,0.8-1.68,1.79-2.06,3.01c-0.38,0.93-0.48,1.9-0.36,2.89c0.61,5.14,6.24,7.88,10.67,5.19
	c2.74-1.66,4.02-5.1,2.97-7.96C31.59,14.11,31.51,13.91,31.4,13.72z"/>
</svg>
