<?xml version="1.0" encoding="utf-8"?>
<!-- Generator: Adobe Illustrator 26.3.1, SVG Export Plug-In . SVG Version: 6.00 Build 0)  -->
<svg version="1.1" id="Layer_1" xmlns="http://www.w3.org/2000/svg" xmlns:xlink="http://www.w3.org/1999/xlink" x="0px" y="0px"
	 viewBox="0 0 50 50" style="enable-background:new 0 0 50 50;" xml:space="preserve">
<style type="text/css">
	.st0{opacity:0.1;fill:#6A6B6B;}
	.st1{fill:url(#SVGID_1_);}
	.st2{fill:url(#SVGID_00000096766841634058906890000008399970513134359961_);}
	.st3{fill:url(#SVGID_00000023965972915938418570000013720128106821397660_);}
	.st4{fill:url(#SVGID_00000095336145767231042970000014177435889053245343_);}
	.st5{fill:url(#SVGID_00000158720397949869176860000000931853456072521870_);}
	.st6{fill:url(#SVGID_00000145055274905108796980000007289448108368196515_);}
	.st7{fill:url(#SVGID_00000114063394993728294910000005677309527262715064_);}
</style>
<g>
	<path class="st0" d="M25.9,41.3c-0.1,0-0.3,0-0.4-0.1l-13.8-4.1c-0.5-0.2-0.9-0.6-1.1-1.1c-0.1-0.6,0-1.1,0.5-1.5l2.4-2.2
		c0.4-0.3,0.8-0.5,1.3-0.4l15.4,2.4l0.8-1.2c0.1-0.2,0.1-0.3,0-0.4c0-0.1-0.1-0.2-0.3-0.2l-20.2-2.3c-0.8-0.1-1.4-0.8-1.4-1.6V20
		c0-0.7,0.5-1.3,1.2-1.5l1.8-0.4v-1.5c0-0.7,0.4-1.3,1.1-1.5L34,8.7c0.5-0.1,1-0.1,1.4,0.2c0.4,0.3,0.6,0.8,0.6,1.3v2.1l1.9-0.5
		c0.5-0.1,1,0,1.3,0.3c0.4,0.3,0.6,0.7,0.6,1.2v15.4c0,0.4-0.2,0.9-0.5,1.2c-0.3,0.3-0.8,0.4-1.2,0.4L36,30.1v4.6
		c0,0.5-0.2,0.9-0.5,1.2c-0.3,0.3-0.8,0.4-1.3,0.4l-3.5-0.6l-3.5,5C26.9,41.1,26.4,41.3,25.9,41.3z M14.6,33.1c-0.1,0-0.2,0-0.3,0.1
		l-2.4,2.2c-0.2,0.1-0.1,0.3-0.1,0.4c0,0.1,0.1,0.2,0.3,0.3l13.8,4.1c0.2,0,0.3,0,0.4-0.1l3.2-4.6L14.6,33.1
		C14.6,33.1,14.6,33.1,14.6,33.1z M31.5,34.6l2.9,0.5c0.2,0,0.3,0,0.3-0.1c0.1,0,0.1-0.1,0.1-0.3V30L13.6,28
		c-0.8-0.1-1.4-0.7-1.4-1.6v-7.2l-1.5,0.4c-0.2,0-0.3,0.2-0.3,0.4v8.7c0,0.2,0.1,0.4,0.3,0.4l20.2,2.3c0.6,0.1,1,0.4,1.2,0.9
		c0.2,0.5,0.2,1.1-0.1,1.5L31.5,34.6z M36,28.9l2.2,0.2c0.1,0,0.3-0.1,0.3-0.1c0,0,0.1-0.1,0.1-0.3V13.3c0-0.2-0.1-0.3-0.1-0.3
		c-0.1,0-0.2-0.1-0.3-0.1L36,13.5V28.9z M13.3,19v7.5c0,0.2,0.2,0.4,0.4,0.4l21.2,1.9v-15L13.3,19z M34.5,9.8c0,0-0.1,0-0.1,0
		l-20.8,6.4c-0.2,0.1-0.3,0.2-0.3,0.4v1.2l21.6-5.2v-2.4c0-0.1-0.1-0.2-0.2-0.3C34.7,9.8,34.6,9.8,34.5,9.8z"/>
	<g>
		<linearGradient id="SVGID_1_" gradientUnits="userSpaceOnUse" x1="-3.4999" y1="12.3925" x2="51.3837" y2="36.6715">
			<stop  offset="0" style="stop-color:#29B473"/>
			<stop  offset="1" style="stop-color:#2B388F"/>
		</linearGradient>
		<path class="st1" d="M25,47.9C12.4,47.9,2.1,37.6,2.1,25C2.1,12.4,12.4,2.1,25,2.1c12.6,0,22.9,10.3,22.9,22.9
			C47.9,37.6,37.6,47.9,25,47.9z M25,4.1C13.5,4.1,4.1,13.5,4.1,25c0,11.5,9.4,20.9,20.9,20.9c11.5,0,20.9-9.4,20.9-20.9
			C45.9,13.5,36.5,4.1,25,4.1z"/>
	</g>
	<g>
		
			<linearGradient id="SVGID_00000106138285424160844170000011277648730809630377_" gradientUnits="userSpaceOnUse" x1="-6.0712" y1="18.2049" x2="48.8124" y2="42.4839">
			<stop  offset="0" style="stop-color:#29B473"/>
			<stop  offset="1" style="stop-color:#2B388F"/>
		</linearGradient>
		<path style="fill:url(#SVGID_00000106138285424160844170000011277648730809630377_);" d="M7,21.6h3.9c0.7,0,1.2,0.2,1.5,0.5
			c0.4,0.3,0.5,0.7,0.5,1.2c0,0.4-0.1,0.7-0.4,1c-0.2,0.2-0.4,0.3-0.7,0.5c0.5,0.1,0.8,0.3,1.1,0.6c0.2,0.3,0.3,0.6,0.3,1.1
			c0,0.4-0.1,0.7-0.2,1c-0.2,0.3-0.4,0.5-0.7,0.7c-0.2,0.1-0.4,0.2-0.8,0.2c-0.5,0.1-0.8,0.1-0.9,0.1H7V21.6z M9.1,24.2H10
			c0.3,0,0.6-0.1,0.7-0.2c0.1-0.1,0.2-0.3,0.2-0.5c0-0.2-0.1-0.4-0.2-0.5S10.3,23,10,23H9.1V24.2z M9.1,26.9h1.1
			c0.4,0,0.6-0.1,0.8-0.2c0.1-0.1,0.2-0.3,0.2-0.5c0-0.2-0.1-0.4-0.2-0.5c-0.1-0.1-0.4-0.2-0.8-0.2H9.1V26.9z"/>
		
			<linearGradient id="SVGID_00000088098067884334878210000009393110804864587690_" gradientUnits="userSpaceOnUse" x1="-4.65" y1="14.9923" x2="50.2336" y2="39.2713">
			<stop  offset="0" style="stop-color:#29B473"/>
			<stop  offset="1" style="stop-color:#2B388F"/>
		</linearGradient>
		<path style="fill:url(#SVGID_00000088098067884334878210000009393110804864587690_);" d="M14.4,21.6h2.1v2.6l2.2-2.6h2.8L19,24.1
			l2.6,4.2H19l-1.4-2.8l-1.1,1.1v1.7h-2.1V21.6z"/>
		
			<linearGradient id="SVGID_00000043445925142138632750000003669541263816540310_" gradientUnits="userSpaceOnUse" x1="-3.7493" y1="12.9561" x2="51.1343" y2="37.2351">
			<stop  offset="0" style="stop-color:#29B473"/>
			<stop  offset="1" style="stop-color:#2B388F"/>
		</linearGradient>
		<path style="fill:url(#SVGID_00000043445925142138632750000003669541263816540310_);" d="M22.4,21.6h2.1v6.8h-2.1V21.6z"/>
		
			<linearGradient id="SVGID_00000040557419113010223240000018214561694789951117_" gradientUnits="userSpaceOnUse" x1="-3.143" y1="11.5856" x2="51.7407" y2="35.8646">
			<stop  offset="0" style="stop-color:#29B473"/>
			<stop  offset="1" style="stop-color:#2B388F"/>
		</linearGradient>
		<path style="fill:url(#SVGID_00000040557419113010223240000018214561694789951117_);" d="M26.1,21.6h2.1v6.8h-2.1V21.6z"/>
		
			<linearGradient id="SVGID_00000093882030700480088000000004110356768350018181_" gradientUnits="userSpaceOnUse" x1="-2.2019" y1="9.4582" x2="52.6817" y2="33.7372">
			<stop  offset="0" style="stop-color:#29B473"/>
			<stop  offset="1" style="stop-color:#2B388F"/>
		</linearGradient>
		<path style="fill:url(#SVGID_00000093882030700480088000000004110356768350018181_);" d="M34.2,25.6l1.8,0.6
			c-0.1,0.5-0.3,1-0.6,1.3c-0.3,0.3-0.6,0.6-1,0.8c-0.4,0.2-0.9,0.3-1.5,0.3c-0.7,0-1.3-0.1-1.8-0.3C30.7,28,30.3,27.6,30,27
			c-0.3-0.5-0.5-1.2-0.5-2.1c0-1.1,0.3-2,0.9-2.6c0.6-0.6,1.4-0.9,2.5-0.9c0.9,0,1.5,0.2,2,0.5c0.5,0.3,0.9,0.9,1.1,1.6L34.2,24
			c-0.1-0.2-0.1-0.4-0.2-0.5c-0.1-0.2-0.3-0.3-0.4-0.4C33.4,23.1,33.2,23,33,23c-0.5,0-0.8,0.2-1.1,0.6c-0.2,0.3-0.3,0.7-0.3,1.3
			c0,0.8,0.1,1.3,0.3,1.6c0.2,0.3,0.6,0.4,1,0.4c0.4,0,0.7-0.1,0.9-0.3C34,26.4,34.2,26,34.2,25.6z"/>
		
			<linearGradient id="SVGID_00000031193408054798772010000016005175496128779924_" gradientUnits="userSpaceOnUse" x1="-0.89" y1="6.4927" x2="53.9936" y2="30.7718">
			<stop  offset="0" style="stop-color:#29B473"/>
			<stop  offset="1" style="stop-color:#2B388F"/>
		</linearGradient>
		<path style="fill:url(#SVGID_00000031193408054798772010000016005175496128779924_);" d="M36.6,21.6H43v1.7h-2.1v5.1h-2.1v-5.1
			h-2.1V21.6z"/>
	</g>
</g>
</svg>
