<?xml version="1.0" encoding="utf-8"?>
<!-- Generator: Adobe Illustrator 26.3.1, SVG Export Plug-In . SVG Version: 6.00 Build 0)  -->
<svg version="1.1" id="Layer_1" xmlns="http://www.w3.org/2000/svg" xmlns:xlink="http://www.w3.org/1999/xlink" x="0px" y="0px"
	 viewBox="0 0 50 50" style="enable-background:new 0 0 50 50;" xml:space="preserve">
<style type="text/css">
	.st0{fill:#7F0000;}
</style>
<g>
	<path class="st0" d="M5.8,27.37c-1.05-0.19-1.87-0.33-2.7-0.47c-1.17-0.2-1.7-0.67-1.62-1.46c0.12-1.15,1.18-2.13,2.24-1.99
		c1.33,0.18,2.66,0.43,4.02,0.66c0.8-2.26,1.56-4.48,2.36-6.68c0.97-2.65,2.21-3.49,5.02-3.49c4.33,0,8.67,0,13,0
		c0.34,0,0.69,0,1.1,0c0,0.81,0,1.58,0,2.43c-0.37,0-0.71,0-1.04,0c-3.99,0.01-7.98,0.01-11.97,0.02c-2.46,0.01-3.9,0.97-4.65,3.32
		c-0.82,2.53-1.52,5.09-2.33,7.81c6.82,0,13.47,0,20.19,0c0,2.4,0,7.08,0,7.08l-11.95-0.08v0.87l11.95,0.01v0.39c0,0-0.56,0-0.88,0
		c-3.3,0-11.07,0.02-11.07,0.02l-0.01,0.7l11.96-0.01v0.52l-11.95-0.05v0.68c0,0,7.92,0,11.96,0c0,2.13,0,4.16,0,6.3
		C29.11,43.97,28.76,44,28.4,44c-5.13,0-10.24,0.01-15.37-0.01c-0.68,0-1.14,0.14-1.57,0.74c-0.85,1.18-2.08,1.79-3.56,1.83
		c-1.16,0.02-2.33,0.02-3.49,0c-1.03-0.02-1.83-0.67-1.87-1.63c-0.15-3.32-0.35-6.65-0.36-9.97C2.19,31.99,3.23,29.42,5.8,27.37z
		 M12.14,37.69L12.14,37.69c0.63,0.01,1.25,0.01,1.88,0.01c1.11-0.01,1.77-0.44,1.92-1.28c0.15-0.8-0.49-1.88-1.45-2.04
		c-2.17-0.35-4.34-0.6-6.52-0.83c-0.67-0.07-0.99,0.39-0.78,1.04c0.84,2.67,1.36,3.17,3.83,3.09
		C11.39,37.68,11.76,37.69,12.14,37.69z"/>
	<path class="st0" d="M30.32,28.07c0-5.28,0-10.56,0-15.84c0-1.55,0.39-1.92,1.95-1.92c4.93,0,9.87,0,14.8,0
		c1.47,0,1.87,0.42,1.87,1.92c0,10.52,0,21.06,0,31.58c0,1.47-0.41,1.88-1.91,1.88c-5,0-10,0-14.98-0.01
		c-1.29,0-1.73-0.46-1.73-1.78C30.32,38.63,30.32,33.35,30.32,28.07z M32.41,13.73c0,9.42,0,18.74,0,28.08c4.85,0,9.63,0,14.42,0
		c0-9.4,0-18.73,0-28.08C42,13.73,37.23,13.73,32.41,13.73z M37.12,11.98c0,0.07,0,0.14,0,0.21c1.69,0,3.36,0,5.05,0
		c0-0.07,0-0.14,0-0.21C40.48,11.98,38.79,11.98,37.12,11.98z"/>
	<path class="st0" d="M15.62,5.26c-2-0.36-3.78-0.4-5.54,0.12C6.51,6.43,4.05,8.7,2.7,12.19c-0.11,0.26-0.16,0.59-0.35,0.75
		c-0.2,0.18-0.57,0.33-0.8,0.26c-0.22-0.07-0.43-0.42-0.49-0.68c-0.05-0.25,0.08-0.55,0.18-0.81c2-5.63,7.83-9.07,13.74-8.12
		c0.25,0.04,0.56,0.04,0.71,0.18c0.23,0.22,0.52,0.59,0.49,0.87C16.16,4.9,15.76,5.12,15.62,5.26z"/>
	<path class="st0" d="M13.24,7.34c0.15,0.01,0.56,0.05,0.96,0.09c0.55,0.07,1.14,0.19,1.04,0.91C15.14,9.09,14.56,8.96,14,8.98
		C12.89,9.03,11.73,9,10.67,9.32c-2.06,0.63-3.46,2.08-4.26,4.1c-0.21,0.54-0.43,1.08-1.11,0.82c-0.75-0.28-0.5-0.89-0.29-1.44
		C6.25,9.57,9.48,7.35,13.24,7.34z"/>
	<path class="st0" d="M13.3,12.4c-1.66-0.02-2.9,0.66-3.62,2.2c-0.23,0.52-0.48,1.04-1.17,0.73c-0.68-0.32-0.46-0.87-0.25-1.37
		c0.84-1.97,2.84-3.17,5.07-3.07c0.59,0.02,1.33-0.01,1.31,0.84C14.63,12.62,13.88,12.42,13.3,12.4z"/>
	<path class="st0" d="M39.67,34.42c-0.82-1.5-1.49-2.73-2.15-3.96c-0.56-1.05-1.17-2.08-1.67-3.16c-0.73-1.55-0.2-3.43,1.18-4.58
		c1.42-1.17,3.49-1.25,4.99-0.2c1.46,1.03,2.21,2.91,1.5,4.46C42.38,29.43,41.05,31.77,39.67,34.42z M42,25.85
		c-0.01-1.33-1.09-2.36-2.42-2.33c-1.3,0.04-2.31,1.08-2.29,2.36c0.01,1.28,1.07,2.34,2.33,2.35C40.92,28.25,42.01,27.16,42,25.85z"
		/>
</g>
</svg>
